<svg width="24" height="24" viewBox="0 0 24 24" fill="none" xmlns="http://www.w3.org/2000/svg">
<path fill-rule="evenodd" clip-rule="evenodd" d="M21.2678 5.26778L19.7322 3.73224C19.2634 3.2634 18.6275 3 17.9645 3H9.5C8.11929 3 7 4.11929 7 5.5V13.5C7 14.8807 8.11929 16 9.5 16H19.5C20.8807 16 22 14.8807 22 13.5V7.03555C22 6.37251 21.7366 5.73662 21.2678 5.26778V5.26778Z" stroke="#8A9399" stroke-width="1.5" stroke-linecap="round" stroke-linejoin="round"/>
<path d="M7 8H5.5C4.11929 8 3 9.11929 3 10.5V18.5C3 19.8807 4.11929 21 5.5 21H15.5C16.8807 21 18 19.8807 18 18.5V16" stroke="#8A9399" stroke-width="1.5" stroke-linecap="round" stroke-linejoin="round"/>
</svg>